<?xml version="1.0" encoding="UTF-8" standalone="no"?>
<svg width="97px" height="44px" viewBox="0 0 97 44" version="1.1" xmlns="http://www.w3.org/2000/svg" xmlns:xlink="http://www.w3.org/1999/xlink">
    <!-- Generator: Sketch 39.1 (31720) - http://www.bohemiancoding.com/sketch -->
    <title>Logo_black</title>
    <desc>Created with Sketch.</desc>
    <defs></defs>
    <g id="Page-1" stroke="none" stroke-width="1" fill="none" fill-rule="evenodd">
        <g id="Desktop" transform="translate(-1.000000, -1.000000)" fill="#231F20">
            <g id="Logo_black" transform="translate(1.000000, 1.000000)">
                <polygon id="Shape" points="17.165871 19.4895206 8.17146774 11.1432128 8.17146774 19.5050631 5.6838871 19.5050631 5.6838871 5.15469807 14.6798548 13.9517376 14.6798548 5.22930193 17.165871 5.22930193"></polygon>
                <path d="M25.9553226,19.8112498 C21.821871,19.8112498 18.5848871,16.6390311 18.5848871,12.590217 C18.5848871,8.48389571 21.7780645,5.26815812 25.853629,5.26815812 C27.8765484,5.26815812 29.7477097,6.03129352 31.1213548,7.41612784 L31.6658065,7.96633137 L29.9104194,9.71175105 L29.3565806,9.15222204 C28.7182581,8.50720942 27.593371,7.73941127 25.8520645,7.73941127 C23.2142903,7.73941127 21.0693387,9.90914045 21.0693387,12.5746745 C21.0693387,15.2479798 23.2080323,17.3431051 25.9365484,17.3431051 C26.9550484,17.3431051 27.9829355,16.9996165 28.8074355,16.3903516 L28.8074355,15.1314113 L25.1542903,15.1314113 L25.1542903,12.6601581 L31.2934516,12.6601581 L31.2934516,17.4923129 L31.0603387,17.7207872 C29.7054677,19.0496686 27.8452581,19.8112498 25.9553226,19.8112498 L25.9553226,19.8112498 Z" id="Shape"></path>
                <path d="M34.4115323,19.4522187 L31.7737581,19.4149167 L38.9408065,5.19510849 L46.1281935,19.4180252 L43.4544355,19.4522187 L41.3439032,15.129857 L36.5189355,15.129857 L34.4115323,19.4522187 L34.4115323,19.4522187 Z M37.6735484,12.6601581 L40.1845968,12.6601581 L38.9251613,9.98529857 L37.6735484,12.6601581 L37.6735484,12.6601581 Z" id="Shape"></path>
                <polygon id="Shape" points="60.4372581 15.1453995 60.4231774 12.6757006 66.9800645 12.6850261 66.9456452 15.1500622"></polygon>
                <g id="Group" transform="translate(65.222939, 5.143818)">
                    <polygon id="Shape" points="5.12865771 13.5841211 5.12865771 2.15574096 0.860657706 2.15574096 0.860657706 1.24028932 10.249319 1.24028932 10.249319 2.15574096 6.05015771 2.15574096 6.05015771 13.5856754 5.12865771 13.5856754"></polygon>
                    <polygon id="Shape" points="6.83398029 14.3612447 4.34639964 14.3612447 4.34639964 2.93286459 0.0783996416 2.93286459 0.0783996416 0.463165685 11.0315771 0.463165685 11.0315771 2.93286459 6.83398029 2.93286459"></polygon>
                </g>
                <polygon id="Shape" points="87.0731452 19.5050631 84.5855645 19.5050631 84.5949516 15.1065433 79.5712903 15.1065433 79.5619032 19.5050631 77.0774516 19.5050631 77.0774516 5.60698402 79.5619032 5.60698402 79.5712903 12.6352902 84.5949516 12.6352902 84.5855645 5.60698402 87.0731452 5.60698402"></polygon>
                <g id="Group" transform="translate(89.177419, 5.143818)">
                    <polygon id="Shape" points="1.20624194 13.5841211 1.20624194 1.24028932 2.12774194 1.24028932 2.12774194 13.5841211"></polygon>
                    <rect id="Rectangle-path" x="0.423983871" y="0.463165685" width="2.48601613" height="13.8980791"></rect>
                </g>
                <path d="M0.278483871,43.1622607 L0.278483871,0.311663583 L96.8591935,0.311663583 L96.8591935,43.1622607 L0.278483871,43.1622607 Z M1.843,41.6080135 L95.2946774,41.6080135 L95.2946774,1.86591085 L1.843,1.86591085 L1.843,41.6080135 L1.843,41.6080135 Z" id="Shape"></path>
                <g id="Group" transform="translate(5.693548, 25.349033)">
                    <g id="Shape">
                        <path d="M9.8061129,7.01742641 C9.8061129,10.4429874 7.00562903,13.206439 3.559,13.206439 L0.451870968,13.206439 L0.451870968,0.862607233 L3.559,0.862607233 C7.00562903,0.862607233 9.8061129,3.59186543 9.8061129,7.01742641 L9.8061129,7.01742641 Z M1.37337097,1.77805887 L1.37337097,12.2925416 L3.55743548,12.2925416 C6.49246774,12.2925416 8.86583871,9.93474853 8.86583871,7.01742641 C8.86583871,4.10165854 6.49246774,1.77805887 3.55743548,1.77805887 L1.37337097,1.77805887 L1.37337097,1.77805887 Z"></path>
                        <path d="M3.559,13.5950008 L0.0607419355,13.5950008 L0.0607419355,0.474045416 L3.559,0.474045416 C7.21996774,0.474045416 10.1972419,3.4100185 10.1972419,7.01742641 C10.1972419,10.6450395 7.21840323,13.5950008 3.559,13.5950008 L3.559,13.5950008 Z M0.843,12.8178772 L3.559,12.8178772 C6.78816129,12.8178772 9.41498387,10.214513 9.41498387,7.01742641 C9.41498387,3.8374365 6.78816129,1.25116905 3.559,1.25116905 L0.843,1.25116905 L0.843,12.8178772 L0.843,12.8178772 Z M3.559,12.6795492 L0.982241935,12.6795492 L0.982241935,1.38794281 L3.55743548,1.38794281 C6.70054839,1.38794281 9.25696774,3.91204037 9.25696774,7.01587216 C9.25853226,10.1383549 6.70054839,12.6795492 3.559,12.6795492 L3.559,12.6795492 Z M1.7645,11.9024256 L3.55743548,11.9024256 C6.26874194,11.9024256 8.47470968,9.71093692 8.47470968,7.01587216 C8.47470968,4.34101262 6.26874194,2.16506644 3.55743548,2.16506644 L1.7645,2.16506644 L1.7645,11.9024256 L1.7645,11.9024256 Z"></path>
                    </g>
                    <path d="M22.8729516,13.5639159 L20.7843226,9.22134903 L15.4618387,9.22134903 L13.3403548,13.6120976 L11.5317742,13.6120976 L18.1324677,0.44917746 L24.708129,13.5639159 L22.8729516,13.5639159 L22.8729516,13.5639159 Z M16.2519194,7.52721951 L19.9911129,7.52721951 L18.1152581,3.7519529 L16.2519194,7.52721951 L16.2519194,7.52721951 Z" id="Shape"></path>
                    <polygon id="Shape" points="37.7843548 13.5390479 28.8603548 4.55394449 28.8603548 13.5950008 27.1565968 13.5950008 27.1565968 0.474045416 36.1525645 9.19181833 36.1525645 0.474045416 37.8563226 0.474045416"></polygon>
                    <g transform="translate(40.677419, 0.000000)" id="Shape">
                        <path d="M6.97433871,12.5956198 C8.30730645,12.5956198 9.61993548,12.1044777 10.6259194,11.238762 L10.6259194,8.83123297 L6.97433871,8.83123297 L6.97433871,7.91422708 L11.5489839,7.91422708 L11.5489839,11.6444205 C10.3364839,12.8318654 8.69843548,13.5095172 6.9931129,13.5095172 C3.10059677,13.5095172 0.401806452,10.4398789 0.401806452,7.06560807 C0.401806452,3.20019512 3.49485484,0.519118587 6.88829032,0.519118587 C8.80169355,0.519118587 10.4397419,1.26515728 11.6006129,2.43550547 L10.9529032,3.08051808 C9.96256452,2.0780286 8.5638871,1.43457023 6.88829032,1.43457023 C3.91883871,1.43457023 1.32330645,3.8079058 1.32330645,7.04695711 C1.32330645,10.0186779 3.7138871,12.5956198 6.97433871,12.5956198 L6.97433871,12.5956198 Z"></path>
                        <path d="M6.99154839,13.8996333 C3.07556452,13.8996333 0.00911290323,10.8983818 0.00911290323,7.06716232 C0.00911290323,3.17843566 3.03175806,0.132111018 6.88672581,0.132111018 C8.80482258,0.132111018 10.5758548,0.854835997 11.8759677,2.16506644 L12.1497581,2.44016821 L10.9482097,3.6369386 L10.6697258,3.35561985 C9.69659677,2.37022708 8.35267742,1.82779479 6.88516129,1.82779479 C4.03304839,1.82779479 1.71130645,4.17159966 1.71130645,7.05161985 C1.71130645,9.94251976 4.02209677,12.207058 6.96964516,12.207058 C8.13677419,12.207058 9.31485484,11.7889655 10.2300968,11.0569151 L10.2300968,9.21979479 L6.57851613,9.21979479 L6.57851613,7.52566526 L11.9354194,7.52566526 L11.9354194,11.8076165 L11.8196452,11.9210765 C10.5383065,13.1784626 8.77822581,13.8996333 6.99154839,13.8996333 L6.99154839,13.8996333 Z M6.88829032,0.910788898 C3.89224194,0.910788898 0.792935484,3.21418335 0.792935484,7.06871657 C0.792935484,10.0451001 3.11154839,13.1240639 6.9931129,13.1240639 C8.52164516,13.1240639 10.0298387,12.527233 11.1578548,11.4812246 L11.1578548,8.30434315 L7.36546774,8.30434315 L7.36546774,8.4442254 L11.0170484,8.4442254 L11.0170484,11.4175004 L10.8825,11.5325147 C9.79516129,12.4697258 8.40587097,12.9857359 6.97433871,12.9857359 C3.64348387,12.9857359 0.933741935,10.3233103 0.933741935,7.0531741 C0.933741935,3.74418167 3.60593548,1.0522254 6.88985484,1.0522254 C8.42933871,1.0522254 9.85617742,1.57911522 10.9466452,2.54274853 L11.0436452,2.44793944 C9.91875806,1.45322119 8.46062903,0.910788898 6.88829032,0.910788898 L6.88829032,0.910788898 Z"></path>
                    </g>
                </g>
                <polygon id="Shape" points="58.4174677 19.4895206 49.4230645 11.1432128 49.4230645 19.5050631 46.9370484 19.5050631 46.9370484 5.15469807 55.9314516 13.9517376 55.9314516 5.22930193 58.4174677 5.22930193"></polygon>
            </g>
        </g>
    </g>
</svg>